<svg width="6" height="18" viewBox="0 0 6 18" fill="none" xmlns="http://www.w3.org/2000/svg">
<path d="M3 6.42857C2.40666 6.42857 1.82664 6.57938 1.33329 6.86194C0.839943 7.14449 0.455425 7.54609 0.228363 8.01596C0.00129984 8.48582 -0.0581101 9.00285 0.0576455 9.50166C0.173401 10.0005 0.459123 10.4587 0.878681 10.8183C1.29824 11.1779 1.83279 11.4228 2.41473 11.522C2.99667 11.6212 3.59987 11.5703 4.14805 11.3757C4.69623 11.1811 5.16476 10.8515 5.49441 10.4286C5.82405 10.0057 6 9.50858 6 9C6 8.31801 5.68393 7.66396 5.12132 7.18173C4.55871 6.69949 3.79565 6.42857 3 6.42857ZM3 10.2857C2.70333 10.2857 2.41332 10.2103 2.16665 10.069C1.91997 9.92776 1.72771 9.72696 1.61418 9.49202C1.50065 9.25709 1.47095 8.99857 1.52882 8.74917C1.5867 8.49977 1.72956 8.27067 1.93934 8.09086C2.14912 7.91105 2.41639 7.7886 2.70736 7.73899C2.99834 7.68938 3.29994 7.71484 3.57403 7.81215C3.84811 7.90947 4.08238 8.07426 4.2472 8.2857C4.41203 8.49713 4.5 8.74571 4.5 9C4.5 9.34099 4.34196 9.66802 4.06066 9.90914C3.77936 10.1503 3.39782 10.2857 3 10.2857ZM3 5.14286C3.59334 5.14286 4.17336 4.99205 4.66671 4.70949C5.16006 4.42694 5.54457 4.02534 5.77164 3.55547C5.9987 3.08561 6.05811 2.56858 5.94235 2.06977C5.8266 1.57096 5.54088 1.11278 5.12132 0.753155C4.70176 0.393534 4.16721 0.14863 3.58527 0.0494104C3.00333 -0.0498087 2.40013 0.00111415 1.85195 0.195739C1.30377 0.390365 0.835237 0.719951 0.505593 1.14282C0.175949 1.56569 1.6199e-06 2.06285 1.6199e-06 2.57143C1.6199e-06 3.25341 0.316072 3.90747 0.878681 4.3897C1.44129 4.87194 2.20435 5.14286 3 5.14286ZM3 1.28572C3.29667 1.28572 3.58668 1.36112 3.83336 1.5024C4.08003 1.64367 4.27229 1.84447 4.38582 2.07941C4.49935 2.31434 4.52906 2.57286 4.47118 2.82226C4.4133 3.07166 4.27044 3.30076 4.06066 3.48057C3.85088 3.66038 3.58361 3.78283 3.29264 3.83244C3.00166 3.88205 2.70006 3.85659 2.42598 3.75927C2.15189 3.66196 1.91762 3.49717 1.7528 3.28573C1.58797 3.0743 1.5 2.82572 1.5 2.57143C1.5 2.23044 1.65804 1.90341 1.93934 1.66229C2.22065 1.42117 2.60218 1.28572 3 1.28572ZM3 12.8571C2.40666 12.8571 1.82664 13.008 1.33329 13.2905C0.839943 13.5731 0.455425 13.9747 0.228363 14.4445C0.00129984 14.9144 -0.0581101 15.4314 0.0576455 15.9302C0.173401 16.429 0.459123 16.8872 0.878681 17.2468C1.29824 17.6065 1.83279 17.8514 2.41473 17.9506C2.99667 18.0498 3.59987 17.9989 4.14805 17.8043C4.69623 17.6096 5.16476 17.28 5.49441 16.8572C5.82405 16.4343 6 15.9372 6 15.4286C6 14.7466 5.68393 14.0925 5.12132 13.6103C4.55871 13.1281 3.79565 12.8571 3 12.8571ZM3 16.7143C2.70333 16.7143 2.41332 16.6389 2.16665 16.4976C1.91997 16.3563 1.72771 16.1555 1.61418 15.9206C1.50065 15.6857 1.47095 15.4271 1.52882 15.1777C1.5867 14.9283 1.72956 14.6992 1.93934 14.5194C2.14912 14.3396 2.41639 14.2172 2.70736 14.1676C2.99834 14.118 3.29994 14.1434 3.57403 14.2407C3.84811 14.338 4.08238 14.5028 4.2472 14.7143C4.41203 14.9257 4.5 15.1743 4.5 15.4286C4.5 15.7696 4.34196 16.0966 4.06066 16.3377C3.77936 16.5788 3.39782 16.7143 3 16.7143Z" fill="#868686"/>
<path d="M3 10.2857C2.70333 10.2857 2.41332 10.2103 2.16665 10.069C1.91997 9.92776 1.72771 9.72696 1.61418 9.49202C1.50065 9.25709 1.47095 8.99857 1.52882 8.74917C1.5867 8.49977 1.72956 8.27067 1.93934 8.09086C2.14912 7.91105 2.41639 7.7886 2.70736 7.73899C2.99834 7.68938 3.29994 7.71484 3.57403 7.81215C3.84811 7.90947 4.08238 8.07426 4.2472 8.2857C4.41203 8.49713 4.5 8.74571 4.5 9C4.5 9.34099 4.34196 9.66802 4.06066 9.90914C3.77936 10.1503 3.39782 10.2857 3 10.2857Z" fill="#868686"/>
<path d="M3 16.7143C2.70333 16.7143 2.41332 16.6389 2.16665 16.4976C1.91997 16.3563 1.72771 16.1555 1.61418 15.9206C1.50065 15.6857 1.47095 15.4271 1.52882 15.1777C1.5867 14.9283 1.72956 14.6992 1.93934 14.5194C2.14912 14.3396 2.41639 14.2172 2.70736 14.1676C2.99834 14.118 3.29994 14.1434 3.57403 14.2407C3.84811 14.338 4.08238 14.5028 4.2472 14.7143C4.41203 14.9257 4.5 15.1743 4.5 15.4286C4.5 15.7696 4.34196 16.0966 4.06066 16.3377C3.77936 16.5788 3.39782 16.7143 3 16.7143Z" fill="#868686"/>
<path d="M3 1.28572C3.29667 1.28572 3.58668 1.36112 3.83336 1.5024C4.08003 1.64367 4.27229 1.84447 4.38582 2.07941C4.49935 2.31434 4.52906 2.57286 4.47118 2.82226C4.4133 3.07166 4.27044 3.30076 4.06066 3.48057C3.85088 3.66038 3.58361 3.78283 3.29264 3.83244C3.00166 3.88205 2.70006 3.85659 2.42598 3.75927C2.15189 3.66196 1.91762 3.49717 1.7528 3.28573C1.58797 3.0743 1.5 2.82572 1.5 2.57143C1.5 2.23044 1.65804 1.90341 1.93934 1.66229C2.22065 1.42117 2.60218 1.28572 3 1.28572Z" fill="#868686"/>
</svg>
